<?xml version="1.0" encoding="utf-8"?>
<!-- Generator: Adobe Illustrator 17.0.0, SVG Export Plug-In . SVG Version: 6.00 Build 0)  -->
<!DOCTYPE svg PUBLIC "-//W3C//DTD SVG 1.1//EN" "http://www.w3.org/Graphics/SVG/1.1/DTD/svg11.dtd">
<svg version="1.1" xmlns="http://www.w3.org/2000/svg" xmlns:xlink="http://www.w3.org/1999/xlink" x="0px" y="0px" width="576px"
	 height="606px" viewBox="0 0 576 606" enable-background="new 0 0 576 606" xml:space="preserve">
<g id="Layer_1_xA0_Image_1_">
	<g>
		<g>
			<g>
				<g>
					<polygon fill="#FFFFFF" points="549,490 549,167.5 422,167.5 422,460.25 389.668,489 184.668,489 152.001,460.334 
						152.001,167.5 25.25,167.5 25.25,489.75 115.5,566.25 459,566.25 					"/>
				</g>
				<polygon fill="#FFFFFF" points="25.25,30 25.25,58.834 549.167,58.771 549.167,29.938 				"/>
			</g>
			<polygon fill="#FFFFFF" points="25.25,74.75 549.167,74.625 549.167,103.375 25.25,103.5 			"/>
			<polygon fill="#FFFFFF" points="25.25,148.5 549.167,148.375 549.167,119.125 25.25,119.25 			"/>
		</g>
		<rect x="185.5" y="167.5" fill="#FFFFFF" width="204.75" height="22.75"/>
		<rect x="186.5" y="212.167" fill="#FFFFFF" width="203.75" height="22.833"/>
		<rect x="185.5" y="257" fill="#FFFFFF" width="204.75" height="22.667"/>
		<rect x="185.5" y="301.667" fill="#FFFFFF" width="204.75" height="22.833"/>
		<rect x="185.5" y="346.334" fill="#FFFFFF" width="204.75" height="23.166"/>
		<rect x="185.5" y="391.334" fill="#FFFFFF" width="204.75" height="22.833"/>
		<rect x="185.5" y="436" fill="#FFFFFF" width="205.75" height="23"/>
	</g>
</g>
<g id="Layer_2">
</g>
</svg>
