<?xml version="1.0" encoding="utf-8"?> <!-- Generator: IcoMoon.io --> <!DOCTYPE svg PUBLIC "-//W3C//DTD SVG 1.1//EN" "http://www.w3.org/Graphics/SVG/1.1/DTD/svg11.dtd"> <svg width="32" height="32" viewBox="0 0 32 32" xmlns="http://www.w3.org/2000/svg" xmlns:xlink="http://www.w3.org/1999/xlink" fill="#ffffff"><g><path d="M0,12.189L0,32 l 5.614,0 L 5.614,12.189 L0,12.189 z M 8.421,12.189L 8.421,32 l 20.772,0 C 30.597,32, 32,30.585, 32,29.17L 32,26 l-8,0 l0-2 l 8,0 l0-4 l-8,0 l0-2 l 8,0 l0-2.981 c0-1.415-1.403-2.83-2.807-2.83L 16.281,12.189 L 16.281,4.83 c0-1.415-1.404-2.83-2.808-2.83s-2.807,1.415-2.807,2.83l0,7.359 L 8.421,12.189 z"></path></g></svg>