<?xml version="1.0" encoding="utf-8"?>
<!-- Generator: Adobe Illustrator 17.0.0, SVG Export Plug-In . SVG Version: 6.00 Build 0)  -->
<!DOCTYPE svg PUBLIC "-//W3C//DTD SVG 1.1//EN" "http://www.w3.org/Graphics/SVG/1.1/DTD/svg11.dtd">
<svg version="1.1" id="Layer_1" xmlns="http://www.w3.org/2000/svg" xmlns:xlink="http://www.w3.org/1999/xlink" x="0px" y="0px"
	 width="512px" height="444.342px" viewBox="0 0 512 444.342" enable-background="new 0 0 512 444.342" xml:space="preserve">
<path id="vimeo-icon" fill="#FFFFFF" d="M508.058,105.221c-2.252,48.99-36.453,116.071-102.607,201.215
	c-68.407,88.934-126.278,133.406-173.618,133.406c-29.314,0-54.141-27.072-74.409-81.247
	c-13.538-49.653-27.072-99.305-40.606-148.954c-15.053-54.145-31.197-81.248-48.466-81.248c-3.761,0-16.936,7.925-39.481,23.706
	L5.2,121.594c24.826-21.823,49.323-43.645,73.422-65.497c33.111-28.622,57.971-43.676,74.543-45.2
	c39.151-3.761,63.255,23.013,72.301,80.326c9.769,61.831,16.538,100.29,20.333,115.344c11.287,51.304,23.701,76.927,37.268,76.927
	c10.53,0,26.346-16.643,47.442-49.917c21.059-33.281,32.357-58.6,33.871-76c3.009-28.722-8.289-43.118-33.871-43.118
	c-12.05,0-24.463,2.774-37.239,8.254C317.996,41.7,365.238,2.35,434.963,4.591C486.658,6.116,511.025,39.654,508.058,105.221z"/>
</svg>
